HIERARCHY
ROOT hip
{
	OFFSET 0.000000 0.000000 0.000000 
	CHANNELS 6 Xposition Yposition Zposition Xrotation Zrotation Yrotation
	JOINT abdomen
	{
		OFFSET 0.000000 3.402643 0.000000 
		CHANNELS 3 Xrotation Zrotation Yrotation
		JOINT chest
		{
			OFFSET 0.000000 8.438565 -0.680529 
			CHANNELS 3 Xrotation Zrotation Yrotation
			JOINT neck
			{
				OFFSET 0.000000 10.207942 -0.272212 
				CHANNELS 3 Xrotation Zrotation Yrotation
				JOINT head
				{
					OFFSET 0.000000 3.130431 0.000000 
					CHANNELS 3 Xrotation Zrotation Yrotation
					End Site
					{
						OFFSET 0.000000 3.130435 0.000000 
					}
				}
			}
			JOINT lCollar
			{
				OFFSET 3.470700 6.669187 -0.816635 
				CHANNELS 3 Yrotation Zrotation Xrotation
				JOINT lShldr
				{
					OFFSET 3.198488 0.000000 0.000000 
					CHANNELS 3 Zrotation Yrotation Xrotation
					JOINT lForeArm
					{
						OFFSET 10.139888 0.000000 0.000000 
						CHANNELS 3 Yrotation Zrotation Xrotation
						JOINT lHand
						{
							OFFSET 8.370511 0.000000 0.000000 
							CHANNELS 3 Zrotation Yrotation Xrotation
							End Site
							{
								OFFSET 4.083176 0.000000 0.000000 
							}
						}
					}
				}
			}
			JOINT rCollar
			{
				OFFSET -3.470700 6.669187 -0.816635 
				CHANNELS 3 Yrotation Zrotation Xrotation
				JOINT rShldr
				{
					OFFSET -3.198488 0.000000 0.000000 
					CHANNELS 3 Zrotation Yrotation Xrotation
					JOINT rForeArm
					{
						OFFSET -10.139888 0.000000 0.000000 
						CHANNELS 3 Yrotation Zrotation Xrotation
						JOINT rHand
						{
							OFFSET -8.370511 0.000000 0.000000 
							CHANNELS 3 Zrotation Yrotation Xrotation
							End Site
							{
								OFFSET -4.083176 0.000000 0.000000 
							}
						}
					}
				}
			}
		}
	}
	JOINT lThigh
	{
		OFFSET 5.308129 -1.633274 1.361059 
		CHANNELS 3 Xrotation Zrotation Yrotation
		JOINT lShin
		{
			OFFSET -2.041588 -20.007561 0.000000 
			CHANNELS 3 Xrotation Zrotation Yrotation
			JOINT lFoot
			{
				OFFSET 0.000000 -19.190928 -1.224953 
				CHANNELS 3 Xrotation Yrotation Zrotation
				End Site
				{
					OFFSET 0.000000 -2.449906 4.627600 
				}
			}
		}
	}
	JOINT rThigh
	{
		OFFSET -5.308129 -1.633274 1.361059 
		CHANNELS 3 Xrotation Zrotation Yrotation
		JOINT rShin
		{
			OFFSET 2.041588 -20.007561 0.000000 
			CHANNELS 3 Xrotation Zrotation Yrotation
			JOINT rFoot
			{
				OFFSET 0.000000 -19.190928 -1.224953 
				CHANNELS 3 Xrotation Yrotation Zrotation
				End Site
				{
					OFFSET 0.000000 -2.449906 4.627600 
				}
			}
		}
	}
}
MOTION
Frames: 6
Frame Time: 0.016667
35.091892 56.238689 27.634333 4.931641 -5.986328 -139.737350 0.000000 0.000000 0.000000 6.425780 0.947266 5.996094 25.078125 2.109375 162.529648 -167.402344 -172.294922 -5.556641 2.177735 -8.876953 6.095257 -55.322266 26.865234 13.451678 -61.269527 -4.912109 150.352402 -11.396484 -15.224609 -131.145142 8.769531 16.044922 5.878907 40.781254 1.240234 34.189671 60.820313 15.097657 -91.652939 -17.041016 0.468750 101.093750 1.404008 1.560381 2.934224 2.162007 -11.560347 -144.315735 1.086164 178.237793 8.574731 16.495007 -11.031274 -13.006995 15.532967 9.341125 -133.675385 20.710882 135.568253 -12.293816 
35.529476 56.223701 27.896967 4.765625 -5.908203 -140.127975 0.000000 0.000000 0.000000 6.445311 1.113281 5.947266 25.087889 1.962891 162.861328 -167.304688 -172.412109 -5.283204 2.197266 -8.671875 6.104988 -55.683594 26.132813 13.613280 -61.279297 -4.775391 148.623871 -11.777344 -14.804688 -129.033203 8.779296 16.210938 5.869140 40.400387 1.464844 34.160152 61.083988 15.019533 -92.570892 -16.816406 0.703125 101.904411 0.886768 1.734123 3.025171 1.839502 -11.686336 -143.950974 0.759681 178.248505 8.592850 17.181643 -10.593040 -12.561352 12.831098 9.163867 -134.170975 21.175171 135.289825 -12.737497 
36.014824 56.171310 28.198965 4.501953 -5.820235 -140.391235 0.000000 0.000000 0.000000 6.474610 1.259766 5.947480 25.097656 1.835938 163.047195 -167.158203 -172.509766 -5.011039 2.138672 -8.417968 6.124477 -56.123047 25.117189 13.773679 -61.474613 -4.570313 146.835938 -12.080078 -14.228516 -127.177742 8.759767 16.406250 5.866382 39.804688 1.640625 34.082031 61.445313 14.941406 -93.623047 -16.796877 0.869141 103.105469 -0.174743 1.915693 3.144358 2.466950 -11.818537 -143.838638 0.405986 178.128189 8.484983 16.945753 -10.212207 -11.890924 11.492324 8.834378 -134.842529 21.947502 135.070221 -13.414965 
36.500175 56.118786 28.500959 4.248047 -5.722657 -140.664063 0.000000 0.000000 0.000000 6.494141 1.396484 5.937738 25.117186 1.708984 163.242188 -167.011719 -172.607422 -4.766881 2.099609 -8.144531 6.132813 -56.572269 24.101564 13.935546 -61.660152 -4.355469 145.049576 -12.343749 -13.613280 -125.334328 8.750000 16.621094 5.859375 39.218750 1.826172 34.014126 61.767578 14.873048 -94.670479 -16.777344 1.015625 104.316574 -1.288510 2.127526 3.224943 3.101367 -11.967481 -143.660400 0.060133 177.980743 8.350773 16.710699 -9.860191 -11.218949 10.133491 8.503201 -135.517166 22.736252 134.870056 -14.042219 
36.991543 56.095531 28.819901 3.994141 -5.712891 -140.673828 0.000000 0.000000 0.000000 6.699216 1.464844 5.771485 25.000000 1.669922 163.340118 -166.914063 -172.773438 -4.542243 1.953125 -7.763673 6.319678 -57.138672 22.617189 14.076022 -61.806641 -4.091797 143.134766 -12.460938 -12.705077 -123.566605 8.564453 16.669922 6.032355 38.857422 2.324219 33.906246 61.835938 14.853515 -95.722656 -16.650391 0.976563 105.214844 -2.216435 2.343212 3.390388 3.461341 -12.226725 -143.790283 -0.442591 177.938339 8.330909 16.235329 -9.588067 -10.680927 9.501199 8.239477 -136.175293 22.624126 134.617432 -14.121720 
37.482780 56.072281 29.138844 3.730469 -5.712827 -140.694031 0.000000 0.000000 0.000000 6.884764 1.542969 5.615234 24.912111 1.630859 163.447540 -166.816406 -172.939453 -4.327372 1.826172 -7.353477 6.514955 -57.724606 21.152344 14.222275 -61.923828 -3.808594 141.230804 -12.539062 -11.796875 -121.828171 8.388672 16.708984 6.210938 38.496094 2.822266 33.808594 61.884766 14.833984 -96.777344 -16.513672 0.917969 106.123207 -3.112700 2.536736 3.520356 3.783960 -12.488246 -143.888458 -0.905924 177.857574 8.273832 15.760103 -9.315774 -10.155709 8.852411 7.986130 -136.829910 22.548094 134.376846 -14.258857 
